<?xml version="1.0" encoding="UTF-8" standalone="no"?>
<!-- Created with Bouml (http://bouml.free.fr/) -->
<!DOCTYPE svg PUBLIC "-//W3C//DTD SVG 1.1//EN" "http://www.w3.org/Graphics/SVG/1.1/DTD/svg11.dtd">
<svg width="1026" height="508" version="1.1" xmlns="http://www.w3.org/2000/svg">
<g>
	<rect fill="none" stroke="black" stroke-width="1" stroke-opacity="1" x="552" y="274" width="82" height="36" />
	<rect fill="none" stroke="black" stroke-width="1" stroke-opacity="1" x="552" y="310" width="208" height="113" />
	<text font-family="Sans Serif" font-size="18" fill="#000000" xml:space="preserve" text-anchor="middle" x="656" y="334">Expression_tree</text>
</g>
<g>
	<rect fill="none" stroke="black" stroke-width="1" stroke-opacity="1" x="260" y="274" width="86" height="36" />
	<rect fill="none" stroke="black" stroke-width="1" stroke-opacity="1" x="260" y="310" width="217" height="121" />
	<text font-family="Sans Serif" font-size="18" fill="#000000" xml:space="preserve" text-anchor="middle" x="369" y="334">Attr_grammar</text>
</g>
<g>
	<rect fill="none" stroke="black" stroke-width="1" stroke-opacity="1" x="829" y="273" width="73" height="36" />
	<rect fill="none" stroke="black" stroke-width="1" stroke-opacity="1" x="829" y="309" width="185" height="117" />
	<text font-family="Sans Serif" font-size="18" fill="#000000" xml:space="preserve" text-anchor="middle" x="922" y="333">Builders</text>
</g>
<g>
	<rect fill="none" stroke="black" stroke-width="1" stroke-opacity="1" x="3" y="274" width="65" height="36" />
	<rect fill="none" stroke="black" stroke-width="1" stroke-opacity="1" x="3" y="310" width="165" height="121" />
	<text font-family="Sans Serif" font-size="18" fill="#000000" xml:space="preserve" text-anchor="middle" x="86" y="334">Parser</text>
</g>
<g>
	<rect fill="#808080" stroke="none" stroke-opacity="1" x="576" y="17" width="5" height="138" />
	<rect fill="#808080" stroke="none" stroke-opacity="1" x="383" y="150" width="198" height="5" />
	<rect fill="#ffffc0" stroke="black" stroke-width="1" stroke-opacity="1" x="377" y="11" width="199" height="139" />
	<text font-family="Sans Serif" font-size="18" fill="#000000" xml:space="preserve" font-weight="bold" text-anchor="middle" x="477" y="33">Maglib</text>
	<line stroke="black" stroke-opacity="1" x1="377" y1="48" x2="576" y2="48" />
</g>
<g>
	<line stroke="black" stroke-opacity="1" x1="259" y1="352" x2="253" y2="346" />
	<line stroke="black" stroke-opacity="1" x1="259" y1="352" x2="253" y2="358" />
	<line stroke-dasharray="4,4" stroke="black" stroke-opacity="1" x1="168" y1="352" x2="259" y2="352" />
</g>
<g>
	<line stroke="black" stroke-opacity="1" x1="304" y1="273" x2="312" y2="273" />
	<line stroke="black" stroke-opacity="1" x1="304" y1="273" x2="304" y2="264" />
	<line stroke-dasharray="4,4" stroke="black" stroke-opacity="1" x1="447" y1="156" x2="304" y2="273" />
</g>
<g>
	<line stroke-dasharray="4,4" stroke="black" stroke-opacity="1" x1="582" y1="112" x2="850" y2="189" />
</g>
<g>
	<line stroke-dasharray="4,4" stroke="black" stroke-opacity="1" x1="917" y1="426" x2="916" y2="462" />
</g>
<g>
	<line stroke="black" stroke-opacity="1" x1="592" y1="273" x2="594" y2="264" />
	<line stroke="black" stroke-opacity="1" x1="592" y1="273" x2="583" y2="270" />
	<line stroke-dasharray="4,4" stroke="black" stroke-opacity="1" x1="527" y1="156" x2="592" y2="273" />
</g>
<g>
	<line stroke="black" stroke-opacity="1" x1="551" y1="351" x2="545" y2="344" />
	<line stroke="black" stroke-opacity="1" x1="551" y1="351" x2="544" y2="356" />
	<line stroke-dasharray="4,4" stroke="black" stroke-opacity="1" x1="477" y1="350" x2="551" y2="351" />
</g>
<g>
	<line stroke-dasharray="4,4" stroke="black" stroke-opacity="1" x1="85" y1="431" x2="86" y2="488" />
</g>
<g>
	<line stroke-dasharray="4,4" stroke="black" stroke-opacity="1" x1="376" y1="110" x2="36" y2="203" />
</g>
<g>
	<line stroke="black" stroke-opacity="1" x1="653" y1="423" x2="646" y2="428" />
	<line stroke="black" stroke-opacity="1" x1="653" y1="423" x2="658" y2="429" />
	<line stroke-dasharray="4,4" stroke="black" stroke-opacity="1" x1="652" y1="488" x2="653" y2="423" />
</g>
<g>
	<line stroke-dasharray="4,4" stroke="black" stroke-opacity="1" x1="916" y1="462" x2="366" y2="462" />
</g>
<g>
	<line stroke="black" stroke-opacity="1" x1="36" y1="273" x2="42" y2="267" />
	<line stroke="black" stroke-opacity="1" x1="36" y1="273" x2="30" y2="267" />
	<line stroke-dasharray="4,4" stroke="black" stroke-opacity="1" x1="36" y1="203" x2="36" y2="273" />
</g>
<g>
	<line stroke="black" stroke-opacity="1" x1="850" y1="272" x2="856" y2="266" />
	<line stroke="black" stroke-opacity="1" x1="850" y1="272" x2="844" y2="266" />
	<line stroke-dasharray="4,4" stroke="black" stroke-opacity="1" x1="850" y1="189" x2="850" y2="272" />
</g>
<g>
	<line stroke-dasharray="4,4" stroke="black" stroke-opacity="1" x1="86" y1="488" x2="652" y2="488" />
</g>
<g>
	<line stroke="black" stroke-opacity="1" x1="366" y1="431" x2="360" y2="437" />
	<line stroke="black" stroke-opacity="1" x1="366" y1="431" x2="372" y2="437" />
	<line stroke-dasharray="4,4" stroke="black" stroke-opacity="1" x1="366" y1="462" x2="366" y2="431" />
</g>
</svg>
