<?xml version="1.0" encoding="UTF-8" standalone="no"?>
<!-- Created with Bouml (http://bouml.free.fr/) -->
<!DOCTYPE svg PUBLIC "-//W3C//DTD SVG 1.1//EN" "http://www.w3.org/Graphics/SVG/1.1/DTD/svg11.dtd">
<svg width="732" height="458" version="1.1" xmlns="http://www.w3.org/2000/svg">
<g>
	<rect fill="#808080" stroke="none" stroke-opacity="1" x="478" y="60" width="5" height="121" />
	<rect fill="#808080" stroke="none" stroke-opacity="1" x="234" y="176" width="249" height="5" />
	<rect fill="#ffeb60" stroke="black" stroke-width="1" stroke-opacity="1" x="228" y="54" width="250" height="122" />
	<text font-family="Sans Serif" font-size="18" fill="#000000" xml:space="preserve" font-weight="bold" font-style="italic" text-anchor="middle" x="353" y="76">Expression</text>
	<line stroke="black" stroke-opacity="1" x1="228" y1="91" x2="478" y2="91" />
	<text font-family="Sans Serif" font-size="18" fill="#000000" xml:space="preserve" font-weight="bold" x="236" y="113">#</text>
	<text font-family="Sans Serif" font-size="18" fill="#000000" xml:space="preserve" x="265" y="113">type_synthetized</text>
	<text font-family="Sans Serif" font-size="18" fill="#000000" xml:space="preserve" font-weight="bold" x="236" y="146">#</text>
	<text font-family="Sans Serif" font-size="18" fill="#000000" xml:space="preserve" x="265" y="146">conflict</text>
</g>
<g>
	<line stroke="black" stroke-opacity="1" x1="227" y1="78" x2="200" y2="78" />
</g>
<g>
	<line stroke="black" stroke-opacity="1" x1="200" y1="78" x2="200" y2="32" />
</g>
<g>
	<line stroke="black" stroke-opacity="1" x1="200" y1="32" x2="272" y2="32" />
</g>
<g>
	<line stroke="black" stroke-opacity="1" x1="272" y1="53" x2="278" y2="47" />
	<line stroke="black" stroke-opacity="1" x1="272" y1="53" x2="266" y2="47" />
	<line stroke="black" stroke-opacity="1" x1="272" y1="32" x2="272" y2="53" />
</g>
<g>
	<rect fill="#808080" stroke="none" stroke-opacity="1" x="218" y="225" width="5" height="67" />
	<rect fill="#808080" stroke="none" stroke-opacity="1" x="70" y="287" width="153" height="5" />
	<rect fill="#60d460" stroke="black" stroke-width="1" stroke-opacity="1" x="64" y="219" width="154" height="68" />
	<text font-family="Sans Serif" font-size="18" fill="#000000" xml:space="preserve" font-weight="bold" font-style="italic" text-anchor="middle" x="141" y="241">Expr_node</text>
	<line stroke="black" stroke-opacity="1" x1="64" y1="256" x2="218" y2="256" />
</g>
<g>
	<rect fill="#808080" stroke="none" stroke-opacity="1" x="598" y="221" width="5" height="67" />
	<rect fill="#808080" stroke="none" stroke-opacity="1" x="466" y="283" width="137" height="5" />
	<rect fill="#60aaff" stroke="black" stroke-width="1" stroke-opacity="1" x="460" y="215" width="138" height="68" />
	<text font-family="Sans Serif" font-size="18" fill="#000000" xml:space="preserve" font-weight="bold" font-style="italic" text-anchor="middle" x="529" y="237">Expr_leaf</text>
	<line stroke="black" stroke-opacity="1" x1="460" y1="252" x2="598" y2="252" />
</g>
<g>
	<line stroke="black" stroke-opacity="1" x1="176" y1="218" x2="176" y2="202" />
</g>
<g>
	<line stroke="black" stroke-opacity="1" x1="176" y1="202" x2="349" y2="202" />
</g>
<g>
	<line stroke="black" stroke-opacity="1" x1="349" y1="202" x2="349" y2="188" />
	<line stroke="black" stroke-opacity="1" x1="349" y1="182" x2="343" y2="188" />
	<line stroke="black" stroke-opacity="1" x1="349" y1="182" x2="355" y2="188" />
	<line stroke="black" stroke-opacity="1" x1="343" y1="188" x2="355" y2="188" />
</g>
<g>
	<text font-family="Sans Serif" font-size="18" fill="#000000" xml:space="preserve" x="24" y="134">&lt;&lt;vector&gt;&gt;</text>
</g>
<g>
	<line stroke="black" stroke-opacity="1" x1="144" y1="218" x2="144" y2="147" />
</g>
<g>
	<line stroke="black" stroke-opacity="1" x1="227" y1="147" x2="221" y2="141" />
	<line stroke="black" stroke-opacity="1" x1="227" y1="147" x2="221" y2="153" />
	<line stroke="black" stroke-opacity="1" x1="144" y1="147" x2="227" y2="147" />
</g>
<g>
	<line stroke="black" stroke-opacity="1" x1="530" y1="214" x2="530" y2="202" />
</g>
<g>
	<line stroke="black" stroke-opacity="1" x1="530" y1="202" x2="349" y2="202" />
</g>
<g>
	<line stroke="black" stroke-opacity="1" x1="349" y1="202" x2="349" y2="188" />
	<line stroke="black" stroke-opacity="1" x1="349" y1="182" x2="343" y2="188" />
	<line stroke="black" stroke-opacity="1" x1="349" y1="182" x2="355" y2="188" />
	<line stroke="black" stroke-opacity="1" x1="343" y1="188" x2="355" y2="188" />
</g>
<g>
	<rect fill="#808080" stroke="none" stroke-opacity="1" x="267" y="324" width="5" height="121" />
	<rect fill="#808080" stroke="none" stroke-opacity="1" x="17" y="440" width="255" height="5" />
	<rect fill="#90e990" stroke="black" stroke-width="1" stroke-opacity="1" x="11" y="318" width="256" height="122" />
	<text font-family="Sans Serif" font-size="18" fill="#000000" xml:space="preserve" font-weight="bold" text-anchor="middle" x="139" y="340">Expr_function</text>
	<line stroke="black" stroke-opacity="1" x1="11" y1="355" x2="267" y2="355" />
	<text font-family="Sans Serif" font-size="18" fill="#000000" xml:space="preserve" font-weight="bold" x="19" y="377">-</text>
	<text font-family="Sans Serif" font-size="18" fill="#000000" xml:space="preserve" x="48" y="377">precedence_level</text>
	<text font-family="Sans Serif" font-size="18" fill="#000000" xml:space="preserve" font-weight="bold" x="19" y="410">-</text>
	<text font-family="Sans Serif" font-size="18" fill="#000000" xml:space="preserve" x="48" y="410">syntax_order</text>
</g>
<g>
	<rect fill="#808080" stroke="none" stroke-opacity="1" x="525" y="356" width="5" height="89" />
	<rect fill="#808080" stroke="none" stroke-opacity="1" x="331" y="440" width="199" height="5" />
	<rect fill="#90ccff" stroke="black" stroke-width="1" stroke-opacity="1" x="325" y="350" width="200" height="90" />
	<text font-family="Sans Serif" font-size="18" fill="#000000" xml:space="preserve" font-weight="bold" text-anchor="middle" x="425" y="372">Expr_instance</text>
	<line stroke="black" stroke-opacity="1" x1="325" y1="387" x2="525" y2="387" />
	<text font-family="Sans Serif" font-size="18" fill="#000000" xml:space="preserve" font-weight="bold" x="333" y="409">-</text>
	<text font-family="Sans Serif" font-size="18" fill="#000000" xml:space="preserve" x="362" y="409">i_num</text>
</g>
<g>
	<rect fill="#808080" stroke="none" stroke-opacity="1" x="714" y="356" width="5" height="89" />
	<rect fill="#808080" stroke="none" stroke-opacity="1" x="554" y="440" width="165" height="5" />
	<rect fill="#90ccff" stroke="black" stroke-width="1" stroke-opacity="1" x="548" y="350" width="166" height="90" />
	<text font-family="Sans Serif" font-size="18" fill="#000000" xml:space="preserve" font-weight="bold" text-anchor="middle" x="631" y="372">Expr_literal</text>
	<line stroke="black" stroke-opacity="1" x1="548" y1="387" x2="714" y2="387" />
	<text font-family="Sans Serif" font-size="18" fill="#000000" xml:space="preserve" font-weight="bold" x="556" y="409">-</text>
	<text font-family="Sans Serif" font-size="18" fill="#000000" xml:space="preserve" x="585" y="409">value</text>
</g>
<g>
	<line stroke="black" stroke-opacity="1" x1="143" y1="317" x2="143" y2="299" />
	<line stroke="black" stroke-opacity="1" x1="143" y1="293" x2="137" y2="299" />
	<line stroke="black" stroke-opacity="1" x1="143" y1="293" x2="149" y2="299" />
	<line stroke="black" stroke-opacity="1" x1="137" y1="299" x2="149" y2="299" />
</g>
<g>
	<line stroke="black" stroke-opacity="1" x1="426" y1="349" x2="426" y2="318" />
</g>
<g>
	<line stroke="black" stroke-opacity="1" x1="426" y1="318" x2="530" y2="318" />
</g>
<g>
	<line stroke="black" stroke-opacity="1" x1="530" y1="318" x2="530" y2="295" />
	<line stroke="black" stroke-opacity="1" x1="530" y1="289" x2="524" y2="295" />
	<line stroke="black" stroke-opacity="1" x1="530" y1="289" x2="536" y2="295" />
	<line stroke="black" stroke-opacity="1" x1="524" y1="295" x2="536" y2="295" />
</g>
<g>
	<line stroke="black" stroke-opacity="1" x1="632" y1="349" x2="632" y2="318" />
</g>
<g>
	<line stroke="black" stroke-opacity="1" x1="632" y1="318" x2="530" y2="318" />
</g>
<g>
	<line stroke="black" stroke-opacity="1" x1="530" y1="318" x2="530" y2="295" />
	<line stroke="black" stroke-opacity="1" x1="530" y1="289" x2="524" y2="295" />
	<line stroke="black" stroke-opacity="1" x1="530" y1="289" x2="536" y2="295" />
	<line stroke="black" stroke-opacity="1" x1="524" y1="295" x2="536" y2="295" />
</g>
<g>
	<text font-family="Sans Serif" font-size="18" fill="#000000" xml:space="preserve" x="205" y="20">parent</text>
</g>
<g>
	<text font-family="Sans Serif" font-size="18" fill="#000000" xml:space="preserve" x="67" y="159">childs</text>
</g>
</svg>
